<svg xmlns="http://www.w3.org/2000/svg" width="100" height="100" viewBox="0 0 512 512"><g><path fill="#005aaf" d="M512 256c0 141.385-114.615 256-256 256S0 397.385 0 256 114.615 0 256 0c62.636 0 120.018 22.495 164.508 59.847 2.52 2.116 1.099 10.266 3.535 12.476a257.379 257.379 0 0 1 17.275 17.231c2.079 2.28 8.017-1.389 10.013.965C489.175 135.143 512 192.906 512 256z" opacity="1" data-original="#005aaf" class=""></path><path fill="#0573cf" d="M456.148 256c0 110.539-89.609 200.148-200.148 200.148S55.852 366.539 55.852 256 145.461 55.852 256 55.852 456.148 145.461 456.148 256z" opacity="1" data-original="#0573cf" class=""></path><path fill="#ffd98f" d="M390.959 425c0 30.376-24.624 55-55 55h-25l-6.323-7.128H199.224l-8.238 7.104c-35.596-.922-64.335-29.396-65.68-64.885l-.006-.032L55.852 13.536l15.038-2.651a5 5 0 0 1 5.792 4.056l6.078 34.468-5.239 8.815 26.821 152.111 7.938 6.491 23.252 131.867c2.174 12.33 12.901 21.316 25.421 21.307h30.006l7.846 6.532h102.457L310.96 370h25c30.375 0 54.999 24.624 54.999 55zm60.372-334.482-15.86 89.945-.006.032c-1.367 36.079-31.047 64.909-67.461 64.909h-12.489l-15.536-9.067h-96l-8.464 9.067h-25c-30.376 0-55-24.624-55-55 0-30.375 24.624-55 55-55h25l10.213 6.745h99.574l10.213-6.745h30.006c12.52.009 23.247-8.977 25.421-21.307l9.566-54.25a257.471 257.471 0 0 1 30.823 30.671z" opacity="1" data-original="#ffd98f" class=""></path><path fill="#ffcd6b" d="M199.224 480H178.47c-36.414 0-66.094-28.83-67.461-64.909l-.006-.032-33.862-192.037 4.758-8.873L55.852 66.428l-8.231-10.823-6.078-34.468a5 5 0 0 1 4.056-5.792l13.414-2.365 70.52 399.94.006.033C130.951 450.22 161.61 480 199.224 480zM179.77 190.404c0 30.376 24.624 55 55 55h-24.255c-30.376 0-55-24.624-55-55 0-30.375 24.624-55 55-55h24.255c-30.376 0-55 24.624-55 55zM420.508 59.847l-9.566 54.25c-2.174 12.33-12.901 21.316-25.421 21.307h24.255c12.52.009 23.247-8.977 25.421-21.307l6.121-34.713a257.377 257.377 0 0 0-20.81-19.537z" opacity="1" data-original="#ffcd6b" class=""></path><path fill="#00d3b4" d="M355.515 135.404v110h-91.408a2 2 0 0 1-2-2v-106a2 2 0 0 1 2-2z" opacity="1" data-original="#00d3b4"></path><path fill="#00b7a0" d="M265.515 135.404v110h-30v-110z" opacity="1" data-original="#00b7a0"></path><path fill="#ff7a7a" d="M310.959 370v110h-91.172a3 3 0 0 1-3-3V373a3 3 0 0 1 3-3z" opacity="1" data-original="#ff7a7a"></path><path fill="#ff5757" d="M220.959 370v110h-30V370z" opacity="1" data-original="#ff5757"></path><path fill="#ff4343" d="m108.807 197.13-8.397 11.635-16.119 2.842-10.624-8.281-5.209-29.544 3.982-7.08-1.292-7.326-6.163-5.291-5.209-29.544 3.8-5.771-1.729-9.803-5.545-4.123L51.093 75.3l6.382-11.279 16.867-2.974 11.89 8.058 5.209 29.544-3.821 5.645 1.773 10.055 5.521 3.997 5.209 29.544-3.795 7.536 1.448 8.21 5.82 3.95z" opacity="1" data-original="#ff4343"></path><path fill="#ff7a7a" d="m86.233 69.105-35.139 6.196-3.473-19.696 35.139-6.196zm5.209 29.544-35.139 6.196 3.473 19.696 35.139-6.196zm8.682 49.241-35.139 6.196 3.473 19.696 35.139-6.196zm8.683 49.24-35.139 6.196 3.473 19.696 35.139-6.196z" opacity="1" data-original="#ff7a7a"></path><path fill="#ff4343" d="M417.753 337.723c-24.055 6.282-50.802-.434-69.103-20.147-24.769-26.681-24.769-68.47 0-95.15 18.301-19.714 45.047-26.43 69.103-20.148.787.206.831 1.308.063 1.574-9.698 3.356-18.806 8.907-26.55 16.651-27.255 27.254-27.253 71.749.005 99.001 7.743 7.741 16.849 13.29 26.545 16.646.768.265.724 1.367-.063 1.573z" opacity="1" data-original="#ff4343"></path><path fill="#ff5757" d="M449.498 319.498c-9.188 9.187-20.293 15.287-32.028 18.299-11.735-3.012-22.841-9.112-32.028-18.299-27.337-27.337-27.337-71.658 0-98.995 9.188-9.188 20.293-15.287 32.028-18.299 11.735 3.012 22.84 9.111 32.028 18.299 27.336 27.336 27.336 71.658 0 98.995z" opacity="1" data-original="#ff5757"></path><path fill="#b3cbed" d="M275.733 160.218c0 5.523-4.477 10-10 10s-10-4.477-10-10 4.477-10 10-10 10 4.477 10 10zm-99.115 144.534c-5.523 0-10 4.477-10 10s4.477 10 10 10 10-4.477 10-10-4.477-10-10-10zM326.711 62.355c-5.523 0-10 4.477-10 10s4.477 10 10 10 10-4.477 10-10-4.477-10-10-10zm-164.007 10c-5.523 0-10 4.477-10 10s4.477 10 10 10 10-4.477 10-10-4.477-10-10-10zm123.029-51.421c-5.523 0-10 4.477-10 10s4.477 10 10 10 10-4.477 10-10-4.477-10-10-10zm142.024 373.475c-5.523 0-10 4.477-10 10s4.477 10 10 10 10-4.477 10-10-4.477-10-10-10zM31.118 218.628c-5.523 0-10 4.477-10 10s4.477 10 10 10 10-4.477 10-10-4.477-10-10-10zm432.084 140.781c-5.523 0-10 4.477-10 10s4.477 10 10 10 10-4.477 10-10-4.477-10-10-10z" opacity="1" data-original="#b3cbed"></path><path fill="#fff5f5" d="M228.299 243.837a7.5 7.5 0 0 1 7.5-7.5h67.175c4.143 0 7.5 3.357 7.5 7.5s-3.357 7.5-7.5 7.5h-67.175a7.5 7.5 0 0 1-7.5-7.5zm74.675 54.372h-67.175c-4.142 0-7.5 3.357-7.5 7.5s3.358 7.5 7.5 7.5h67.175c4.143 0 7.5-3.357 7.5-7.5s-3.358-7.5-7.5-7.5zm1.662-22.552c0-4.143-3.357-7.5-7.5-7.5H100.474c-4.142 0-7.5 3.357-7.5 7.5s3.358 7.5 7.5 7.5h196.662c4.143 0 7.5-3.357 7.5-7.5z"></path></g></svg>